<svg width="10" height="8" viewBox="0 0 10 8" fill="none" xmlns="http://www.w3.org/2000/svg">
<path d="M2.37735 3.91882V3.9162V1.29263L2.35313 1.27467H2.35111L1.80021 0.867042C1.46321 0.616813 0.982928 0.628921 0.684268 0.923545C0.484489 1.12131 0.359375 1.39575 0.359375 1.70046V2.42734L2.37735 3.91882ZM7.62407 3.9162V3.91882L9.64204 2.42734V1.70046C9.64204 1.39979 9.52096 1.12534 9.3232 0.927581C9.02858 0.633562 8.56344 0.599055 8.22865 0.846257L7.64829 1.27467L7.62407 1.29263V3.9162ZM2.78094 4.21445L4.88084 5.76668C4.95208 5.81934 5.04954 5.81934 5.12078 5.76668L7.22048 4.21445V1.59089L5.00071 3.2321L2.78094 1.59089V4.21445ZM7.62407 4.42049V7.46984C7.62407 7.58124 7.71448 7.67164 7.82587 7.67164H9.13755C9.41623 7.67164 9.64204 7.44583 9.64204 7.16715V2.9288L7.62407 4.42049ZM2.37735 4.42049L0.359375 2.9288V7.16715C0.359375 7.44583 0.585186 7.67164 0.863868 7.67164H2.17555C2.28694 7.67164 2.37735 7.58124 2.37735 7.46984V4.42049Z" fill="white"/>
</svg>
