<svg width="9" height="11" viewBox="0 0 9 11" fill="none" xmlns="http://www.w3.org/2000/svg">
<path d="M4.94284 0.972656C3.31745 0.972656 2 2.29011 2 3.9155C2 4.61641 2.24646 5.25907 2.65598 5.76427C2.78798 5.92686 3.00882 6.18286 3.12393 6.35791C3.78675 7.36488 4.6371 8.8273 4.88491 10.0274C4.92742 10.2324 4.97867 10.236 5.03384 10.0341C5.21059 9.38698 5.669 7.97304 6.61567 6.49353C6.72856 6.31709 6.95743 6.07016 7.09952 5.91643C7.30531 5.69355 7.4766 5.4384 7.60675 5.16019C7.78419 4.78069 7.88565 4.36056 7.88565 3.91584C7.88565 2.29026 6.5682 0.972656 4.94284 0.972656ZM4.94284 5.5055C4.03563 5.5055 3.30021 4.77008 3.30021 3.86287C3.30021 2.95582 4.03563 2.22043 4.94284 2.22043C5.85005 2.22043 6.58547 2.95585 6.58547 3.86287C6.58547 4.77011 5.85005 5.5055 4.94284 5.5055Z" fill="white"/>
<path d="M4.94486 4.48932C5.32214 4.48932 5.628 4.18347 5.628 3.80619C5.628 3.4289 5.32214 3.12305 4.94486 3.12305C4.56757 3.12305 4.26172 3.4289 4.26172 3.80619C4.26172 4.18347 4.56757 4.48932 4.94486 4.48932Z" fill="white"/>
</svg>
