<svg width="50" height="64" viewBox="0 0 50 64" fill="none" xmlns="http://www.w3.org/2000/svg">
<path d="M49.2308 9.84615H0V3.28205C0 1.46942 1.46943 0 3.28205 0H45.9487C47.7613 0 49.2308 1.46942 49.2308 3.28205V9.84615Z" fill="white"/>
<path d="M49.2318 54.6685V17.8188C49.2318 17.0089 48.6408 16.32 47.8403 16.1969L29.789 13.4198C28.7949 13.2668 27.8984 14.0359 27.8984 15.0417V61.6113C27.8984 62.763 29.0537 63.5564 30.1286 63.143L48.1798 56.2002C48.8136 55.9564 49.2318 55.3475 49.2318 54.6685Z" fill="white"/>
<path d="M0.81901 54.6685V17.8188C0.81901 17.0089 1.40996 16.32 2.2105 16.1969L20.2618 13.4198C21.2559 13.2668 22.1523 14.0359 22.1523 15.0417V61.6113C22.1523 62.763 20.9971 63.5564 19.9222 63.143L1.87094 56.2002C1.23719 55.9564 0.81901 55.3475 0.81901 54.6685Z" fill="white"/>
</svg>
