<svg width="10" height="10" viewBox="0 0 10 10" fill="none" xmlns="http://www.w3.org/2000/svg">
<g clip-path="url(#clip0_5897_1207)">
<path fill-rule="evenodd" clip-rule="evenodd" d="M8.28721 2.03081C7.41498 1.15745 6.25491 0.676236 5.01886 0.675781C2.4719 0.675781 0.399042 2.74842 0.398151 5.29606C0.397714 6.11048 0.610626 6.90541 1.01496 7.60598L0.359375 10.0005L2.80888 9.358C3.48372 9.72626 4.24364 9.9201 5.01688 9.92032H5.01886C7.56539 9.92032 9.63848 7.84748 9.63936 5.29982C9.6398 4.06513 9.15969 2.9044 8.28721 2.03103V2.03081ZM5.01886 9.14002H5.01732C4.32827 9.13982 3.65232 8.95456 3.06255 8.60474L2.92231 8.52146L1.4687 8.90272L1.85664 7.48545L1.76535 7.34011C1.38096 6.72863 1.1778 6.02186 1.17824 5.29629C1.17913 3.17889 2.90193 1.45608 5.02043 1.45608C6.0462 1.45654 7.01043 1.85645 7.73554 2.58248C8.46071 3.30828 8.85971 4.27338 8.85927 5.29939C8.85836 7.41699 7.1356 9.13982 5.01886 9.13982V9.14002ZM7.12539 6.26382C7.00995 6.20599 6.44236 5.92682 6.33644 5.88827C6.23054 5.84971 6.15368 5.83046 6.07678 5.94609C5.99991 6.06177 5.77859 6.32186 5.71122 6.39872C5.64386 6.47584 5.57652 6.48537 5.46108 6.42753C5.34567 6.3697 4.97366 6.24786 4.53256 5.85459C4.18938 5.5484 3.95761 5.17045 3.89029 5.05478C3.82293 4.93914 3.88319 4.87666 3.94078 4.81927C3.99262 4.76744 4.05622 4.68436 4.11405 4.617C4.17187 4.54964 4.19092 4.50136 4.22946 4.42446C4.26804 4.34735 4.24875 4.28004 4.21996 4.22218C4.19114 4.16437 3.96029 3.59607 3.8639 3.365C3.77018 3.13991 3.67494 3.17048 3.60426 3.16672C3.53688 3.16339 3.46002 3.16273 3.38293 3.16273C3.30583 3.16273 3.18086 3.19152 3.07496 3.30719C2.96906 3.42281 2.67084 3.70221 2.67084 4.27025C2.67084 4.83833 3.08449 5.38758 3.14232 5.46468C3.20013 5.54178 3.9565 6.7078 5.11458 7.20808C5.38997 7.32705 5.60509 7.39816 5.77282 7.45133C6.04933 7.53929 6.301 7.5269 6.49993 7.49718C6.72174 7.46397 7.18301 7.21782 7.27916 6.94817C7.37529 6.67854 7.37529 6.44725 7.34651 6.39916C7.31772 6.3511 7.24062 6.32206 7.12519 6.26425L7.12539 6.26382Z" fill="white"/>
</g>
<defs>
<clipPath id="clip0_5897_1207">
<rect width="9.28" height="9.32474" fill="white" transform="translate(0.359375 0.675781)"/>
</clipPath>
</defs>
</svg>
